<?xml version="1.0" encoding="utf-8"?>
<!-- Generator: Adobe Illustrator 25.2.1, SVG Export Plug-In . SVG Version: 6.00 Build 0)  -->
<svg version="1.1" id="Layer_1" xmlns="http://www.w3.org/2000/svg" xmlns:xlink="http://www.w3.org/1999/xlink" x="0px" y="0px"
	 viewBox="0 0 1920 1080" style="enable-background:new 0 0 1920 1080;" xml:space="preserve">
<style type="text/css">
	.st0{fill:none;}
	.st1{fill:#5C5E5D;}
</style>
<rect x="1.86" y="-0.05" class="st0" width="1917.19" height="1080.11"/>
<g>
	<g>
		<path class="st1" d="M672.46,538.84h17.03v38.27c-10.48,7.86-26.2,13.25-40.31,13.25c-30.42,0-53.85-22.56-53.85-51.81
			s23.87-51.52,55.01-51.52c14.7,0,29.69,5.68,39.88,14.55l-11.06,14.26c-7.71-7.13-18.48-11.5-28.82-11.5
			c-19.65,0-35.07,14.99-35.07,34.2c0,19.36,15.57,34.35,35.22,34.35c6.99,0,14.99-2.47,21.98-6.4v-27.65H672.46z"/>
		<polygon class="st1" points="792.25,487.76 792.25,504.78 737.09,504.78 737.09,529.96 786.57,529.96 786.57,546.99 
			737.09,546.99 737.09,572.6 794,572.6 794,589.63 717.59,589.63 717.59,487.76 		"/>
		<polygon class="st1" points="899.48,487.76 899.48,505.07 867.75,505.07 867.75,589.63 848.1,589.63 848.1,505.07 816.38,505.07 
			816.38,487.76 		"/>
		<path class="st1" d="M1176.81,538.99h17.03v38.27c-10.48,7.86-26.2,13.25-40.31,13.25c-30.42,0-53.85-22.56-53.85-51.81
			s23.87-51.52,55.01-51.52c14.7,0,29.69,5.68,39.88,14.55l-11.06,14.26c-7.71-7.13-18.48-11.5-28.82-11.5
			c-19.65,0-35.07,14.99-35.07,34.2c0,19.36,15.57,34.34,35.22,34.34c6.99,0,14.99-2.47,21.98-6.4v-27.64H1176.81z"/>
	</g>
	<path class="st1" d="M1034.8,540.38l-28.41,28.41c-0.52,0.52-1.36,0.52-1.87,0c-0.52-0.52-0.52-1.36,0-1.87l61.12-61.12
		l-29.16-29.16l-18.67,18.67c-7.76,7.76-20.34,7.76-28.1,0l-18.67-18.67l-29.35,29.35l30.77,30.77l28.3-28.3
		c0.52-0.52,1.36-0.52,1.87,0c0.52,0.52,0.52,1.36,0,1.87l-28.3,28.3l-32.64,32.79l29.35,29.35l18.67-18.67
		c7.76-7.76,20.34-7.76,28.1,0l18.67,18.67l29.35-29.35L1034.8,540.38z"/>
	<g>
		<path class="st1" d="M1322.17,538.85c0,29.25-23.58,51.81-54.28,51.81c-30.71,0-54.29-22.56-54.29-51.81
			c0-29.4,23.58-51.52,54.29-51.52C1298.6,487.33,1322.17,509.6,1322.17,538.85 M1233.54,538.85c0,19.21,15.86,34.35,34.64,34.35
			c18.63,0,34.05-15.13,34.05-34.35c0-19.21-15.43-34.05-34.05-34.05C1249.26,504.8,1233.54,519.64,1233.54,538.85"/>
	</g>
</g>
</svg>
